# xmcd CD database file generated by Grip 3.3.1
# 
# Track frame offsets:
#       150
#       103139
#       211114
#       239223
#       264496
#       297026
#       325440
# 
# Disc length: 4655 seconds
# 
# Revision: 1
# Processed by: cddbd v1.5.2PL0 Copyright (c) Steve Scherf et al.
# Submitted via: Grip 3.3.1
# 
DISCID=6b122d07
DTITLE=Royal Concertgebouw Orchestra Amsterdam - Radio Legacy RCO 2000-2
DTITLE=010 CD139
DYEAR=1900
DGENRE=Classical
TTITLE0=IV. Finale: Feierlich, nicht schnell - Symphony No.8 in C minor, 
TTITLE0=Zubin Mehta (dir.), Anton Bruckner
TTITLE1=Musique pour l'esprit en deuil (1943), Bernard Haitink (dir.), Ru
TTITLE1=dolf Escher
TTITLE2=No reason to panic (2006), David Robertson (dir.), Mayke Nas
TTITLE3=I. - Asyla, Op.17 (1997), Daniel Harding (dir.), Thomas Adès
TTITLE4=II. - Asyla, Op.17 (1997), Daniel Harding (dir.), Thomas Adès
TTITLE5=III. Ecstasio - Asyla, Op.17 (1997), Daniel Harding (dir.), Thoma
TTITLE5=s Adès
TTITLE6=IV. - Asyla, Op.17 (1997), Daniel Harding (dir.), Thomas Adès
EXTD=
EXTT0=
EXTT1=
EXTT2=
EXTT3=
EXTT4=
EXTT5=
EXTT6=
PLAYORDER=
